<?xml version="1.0" standalone="no"?>
<!DOCTYPE svg PUBLIC "-//W3C//DTD SVG 20010904//EN"
 "http://www.w3.org/TR/2001/REC-SVG-20010904/DTD/svg10.dtd">
<svg version="1.0" xmlns="http://www.w3.org/2000/svg"
 width="512.000000pt" height="512.000000pt" viewBox="0 0 512.000000 512.000000"
 preserveAspectRatio="xMidYMid meet">
<metadata>
Created by potrace 1.14, written by Peter Selinger 2001-2017
</metadata>
<g transform="translate(0.000000,512.000000) scale(0.100000,-0.100000)"
fill="#000000" stroke="none">
<path d="M3682 5107 c-22 -10 -72 -104 -172 -322 -48 -104 -317 -689 -355
-770 -18 -38 -53 -114 -78 -168 -43 -92 -47 -97 -70 -88 -13 5 -37 12 -53 15
-16 2 -38 7 -49 9 -37 9 -200 39 -245 45 -25 4 -101 6 -170 6 -146 -2 -249
-27 -375 -94 -66 -34 -188 -121 -220 -156 -5 -6 -32 -28 -60 -50 -53 -42 -99
-80 -125 -104 -8 -8 -49 -42 -90 -75 -78 -62 -119 -103 -121 -120 -1 -5 -3
-57 -4 -115 -2 -122 12 -187 53 -245 28 -40 28 -42 15 -86 -41 -129 -53 -179
-59 -234 -4 -33 -8 -62 -10 -64 -4 -4 -125 17 -169 29 -16 5 -50 11 -75 15
-25 3 -65 9 -90 13 -82 13 -271 7 -340 -11 -175 -46 -264 -100 -517 -314 -12
-10 -70 -58 -129 -108 -59 -49 -122 -102 -138 -117 l-31 -26 0 -144 c0 -138 1
-145 29 -200 16 -32 33 -58 38 -58 14 0 9 -34 -18 -111 -27 -78 -29 -87 -44
-159 -13 -67 -6 -236 15 -315 53 -212 217 -408 415 -497 25 -11 167 -60 315
-109 1008 -334 997 -331 1230 -366 17 -3 230 -7 475 -10 l445 -4 184 91 c101
50 208 107 238 126 155 99 256 251 288 431 12 69 13 182 1 220 -3 10 -8 34
-11 53 -7 43 -69 189 -124 292 -23 43 -41 80 -41 83 0 3 15 3 33 0 67 -11 184
-14 548 -15 l377 -1 203 101 c263 131 326 178 407 300 71 106 99 188 108 312
11 146 -17 249 -123 463 -167 336 -416 633 -712 849 l-63 46 -29 -46 -29 -45
-28 19 c-15 11 -51 31 -79 46 -29 14 -53 29 -53 31 0 6 135 206 216 320 24 33
69 98 101 145 53 78 172 249 574 830 79 113 161 231 183 263 52 75 56 131 13
174 l-27 28 -253 3 c-299 3 -272 13 -367 -135 -70 -111 -204 -320 -500 -783
-113 -176 -240 -374 -282 -440 -100 -158 -94 -151 -126 -137 -15 6 -29 12 -31
13 -2 2 10 27 27 56 17 29 39 69 50 88 10 19 81 143 157 275 76 132 174 303
218 380 113 200 147 258 157 275 48 78 152 268 156 285 8 34 -21 92 -55 109
-25 13 -71 16 -268 15 -154 0 -246 -4 -261 -12z"/>
</g>
</svg>
